<svg width="64" height="34" viewBox="0 0 64 34" fill="none" xmlns="http://www.w3.org/2000/svg">
<path d="M0 1.35811H7.11111V15.6624C7.11111 16.7794 7.28626 17.5261 7.63656 17.9024C7.99854 18.2669 8.70498 18.4491 9.75588 18.4491H10.1237V25.4337H8.23207C5.63985 25.4337 3.61978 24.6753 2.17187 23.1584C0.723955 21.6298 0 19.5133 0 16.8088V1.35811Z" fill="url(#paint0_linear_2_4895)"/>
<path d="M29.2151 17.7083H19.2841C19.1323 17.2027 19.0564 16.7383 19.0564 16.315C19.0564 15.727 19.1615 15.1509 19.3716 14.5865H22.6995C22.466 13.2813 21.7362 12.6287 20.5101 12.6287C19.6928 12.6287 19.0272 12.9814 18.5134 13.6869C17.9996 14.3807 17.7427 15.2743 17.7427 16.3679C17.7427 17.5085 17.988 18.4315 18.4784 19.137C18.9805 19.8425 19.6344 20.1953 20.4401 20.1953C21.094 20.1953 21.7245 19.866 22.3317 19.2076L26.0624 23.7228C24.3226 25.0986 22.3901 25.7865 20.2649 25.7865C17.6727 25.7865 15.495 24.9104 13.7318 23.1584C11.9686 21.4064 11.087 19.237 11.087 16.6501C11.087 14.075 11.9745 11.8996 13.7493 10.1241C15.5359 8.34856 17.7252 7.46079 20.3175 7.46079C22.8513 7.46079 24.9765 8.33092 26.6929 10.0712C28.4211 11.7997 29.2852 13.9339 29.2852 16.4737C29.2852 16.7324 29.2618 17.1439 29.2151 17.7083Z" fill="url(#paint1_linear_2_4895)"/>
<path d="M34.312 7.84882H40.8626V22.6998C40.8626 25.8041 40.1328 28.2734 38.6732 30.1077C36.8166 32.4359 34.2594 33.6 31.0016 33.6C30.0091 33.6 28.8882 33.3883 27.6388 32.965V26.7389C28.7364 27.2563 29.6647 27.515 30.4236 27.515C33.0159 27.515 34.312 25.5924 34.312 21.7474V7.84882ZM37.3946 0C38.2821 0 39.0469 0.31748 39.6891 0.952441C40.343 1.57564 40.6699 2.31643 40.6699 3.1748C40.6699 4.09197 40.3605 4.84451 39.7417 5.43244C39.1345 6.02037 38.3521 6.31433 37.3946 6.31433C36.4371 6.31433 35.649 6.02037 35.0301 5.43244C34.4229 4.84451 34.1193 4.09197 34.1193 3.1748C34.1193 2.31643 34.4404 1.57564 35.0826 0.952441C35.7365 0.31748 36.5072 0 37.3946 0Z" fill="url(#paint2_linear_2_4895)"/>
<path d="M51.249 7.84882V25.4337H44.6984V7.84882H51.249ZM47.9912 0C48.8787 0 49.6435 0.31748 50.2857 0.952441C50.9396 1.57564 51.2666 2.31643 51.2666 3.1748C51.2666 4.09197 50.9571 4.84451 50.3383 5.43244C49.7311 6.02037 48.9487 6.31433 47.9912 6.31433C47.0338 6.31433 46.2456 6.02037 45.6267 5.43244C45.0195 4.84451 44.7159 4.09197 44.7159 3.1748C44.7159 2.31643 45.037 1.57564 45.6793 0.952441C46.3331 0.31748 47.1038 0 47.9912 0Z" fill="url(#paint3_linear_2_4895)"/>
<path d="M60.9349 1.35811V8.09575H63.8774V15.0627H60.9349C60.9349 16.4619 61.1509 17.4261 61.5829 17.9553C62.0266 18.4844 62.8323 18.749 64 18.749V25.6806C63.6614 25.6924 63.4103 25.6983 63.2469 25.6983C61.7639 25.6983 60.3627 25.3514 59.0432 24.6576C57.7355 23.9639 56.6845 23.0232 55.8905 21.8356C54.8863 20.3187 54.3842 18.308 54.3842 15.8035V1.35811H60.9349Z" fill="url(#paint4_linear_2_4895)"/>
<defs>
<linearGradient id="paint0_linear_2_4895" x1="-3.87879" y1="16.8" x2="64" y2="16.8" gradientUnits="userSpaceOnUse">
<stop offset="0.197917" stop-color="#004B87"/>
<stop offset="0.810551" stop-color="#296A98"/>
<stop offset="1" stop-color="#36749D"/>
</linearGradient>
<linearGradient id="paint1_linear_2_4895" x1="-3.87879" y1="16.8" x2="64" y2="16.8" gradientUnits="userSpaceOnUse">
<stop offset="0.197917" stop-color="#004B87"/>
<stop offset="0.810551" stop-color="#296A98"/>
<stop offset="1" stop-color="#36749D"/>
</linearGradient>
<linearGradient id="paint2_linear_2_4895" x1="-3.87879" y1="16.8" x2="64" y2="16.8" gradientUnits="userSpaceOnUse">
<stop offset="0.197917" stop-color="#004B87"/>
<stop offset="0.810551" stop-color="#296A98"/>
<stop offset="1" stop-color="#36749D"/>
</linearGradient>
<linearGradient id="paint3_linear_2_4895" x1="-3.87879" y1="16.8" x2="64" y2="16.8" gradientUnits="userSpaceOnUse">
<stop offset="0.197917" stop-color="#004B87"/>
<stop offset="0.810551" stop-color="#296A98"/>
<stop offset="1" stop-color="#36749D"/>
</linearGradient>
<linearGradient id="paint4_linear_2_4895" x1="-3.87879" y1="16.8" x2="64" y2="16.8" gradientUnits="userSpaceOnUse">
<stop offset="0.197917" stop-color="#004B87"/>
<stop offset="0.810551" stop-color="#296A98"/>
<stop offset="1" stop-color="#36749D"/>
</linearGradient>
</defs>
</svg>
